HIERARCHY
ROOT Hips
{
  OFFSET 0.0000 0.0000 0.0000
  CHANNELS 6 Xposition Yposition Zposition Zrotation Xrotation Yrotation
  JOINT LeftHip
  {
    OFFSET 8.2414 -3.0948 6.2759
    CHANNELS 3 Zrotation Xrotation Yrotation
    JOINT LeftKnee
    {
      OFFSET 0.0000 -36.8017 -0.3103
      CHANNELS 3 Zrotation Xrotation Yrotation
      JOINT LeftAnkle
      {
        OFFSET -0.0862 -37.3534 -1.9397
        CHANNELS 3 Zrotation Xrotation Yrotation
        JOINT LFoot
        {
          OFFSET -0.0345 -5.7759 12.9310
          CHANNELS 3 Zrotation Xrotation Yrotation
          End Site
          {
              OFFSET 0.0690 -0.7500 5.9052
          }
        }
      }
    }
  }
  JOINT RightHip
  {
    OFFSET -8.2414 -3.0948 6.2759
    CHANNELS 3 Zrotation Xrotation Yrotation
    JOINT RightKnee
    {
      OFFSET -0.0000 -36.8017 -0.3103
      CHANNELS 3 Zrotation Xrotation Yrotation
      JOINT RightAnkle
      {
        OFFSET 0.0862 -37.3534 -1.9397
        CHANNELS 3 Zrotation Xrotation Yrotation
        JOINT RFoot
        {
          OFFSET 0.0345 -5.7759 12.9310
          CHANNELS 3 Zrotation Xrotation Yrotation
          End Site
          {
              OFFSET -0.0690 -0.8276 5.9052
          }
        }
      }
    }
  }
  JOINT Chest
  {
    OFFSET -0.0000 9.4310 0.0000
    CHANNELS 3 Zrotation Xrotation Yrotation
    JOINT LeftCollar
    {
      OFFSET 7.7500 31.9655 3.5000
      CHANNELS 3 Zrotation Xrotation Yrotation
      JOINT LeftShoulder
      {
        OFFSET 8.3534 1.8707 0.4914
        CHANNELS 3 Zrotation Xrotation Yrotation
        JOINT LeftElbow
        {
          OFFSET 27.0136 0.9828 -0.1635
          CHANNELS 3 Zrotation Xrotation Yrotation
          JOINT LeftWrist
          {
            OFFSET 23.2271 -0.0862 0.8812
            CHANNELS 3 Zrotation Xrotation Yrotation
            End Site
            {
                OFFSET 16.7872 -0.5172 1.2956
            }
          }
        }
      }
    }
    JOINT RightCollar
    {
      OFFSET -7.7500 31.9655 3.5000
      CHANNELS 3 Zrotation Xrotation Yrotation
      JOINT RightShoulder
      {
        OFFSET -8.3534 1.8707 0.4914
        CHANNELS 3 Zrotation Xrotation Yrotation
        JOINT RightElbow
        {
          OFFSET -27.0136 0.9828 -0.1635
          CHANNELS 3 Zrotation Xrotation Yrotation
          JOINT RightWrist
          {
            OFFSET -23.2271 -0.0862 0.8812
            CHANNELS 3 Zrotation Xrotation Yrotation
            End Site
            {
                OFFSET -16.7872 -0.5172 1.2956
            }
          }
        }
      }
    }
    JOINT Neck
    {
      OFFSET 0.0000 37.7931 3.6897
      CHANNELS 3 Zrotation Xrotation Yrotation
      JOINT Head
      {
        OFFSET -0.0000 10.6810 2.8966
        CHANNELS 3 Zrotation Xrotation Yrotation
        End Site
        {
            OFFSET -0.2500 11.4741 2.0517
        }
      }
    }
  }
}
MOTION
Frames:	18
Frame Time:	0.033333
6.7754 83.8762 72.5502 -13.34 22.98 38.08 0.68 -9.96 -1.44 0.15 26.53 0.00 -3.35 -13.08 0.85 -0.04 -16.72 -0.68 -9.49 -53.48 -16.34 -0.16 34.05 0.09 2.73 -18.03 -0.47 0.05 -5.66 0.67 4.07 -29.74 18.52 0.00 -0.00 0.00 -32.29 -35.01 8.61 6.33 6.23 -42.10 23.32 -0.20 3.20 -0.00 -0.00 -0.00 33.28 17.03 0.72 -23.49 4.70 76.68 -30.87 2.45 -12.53 -11.30 -5.28 -10.63 13.97 20.47 -28.44 
6.8342 84.4793 75.6888 -13.58 21.92 41.67 0.14 -9.57 0.10 0.15 28.04 -0.01 -5.68 -8.25 1.85 -0.04 -13.18 -0.67 -9.44 -50.16 -17.15 -0.16 34.17 0.09 2.52 -19.76 -0.36 0.05 -2.47 0.66 3.54 -29.06 16.34 0.00 -0.00 0.00 -34.49 -35.30 5.44 5.69 5.94 -40.28 22.08 -0.29 2.73 -0.00 -0.00 -0.00 32.77 17.16 -0.46 -23.49 4.70 76.68 -30.65 2.36 -12.29 -11.45 -5.55 -10.95 14.18 20.34 -29.01 
6.8359 84.8283 78.6260 -14.20 20.53 45.07 0.22 -9.68 2.60 0.16 29.35 -0.01 -6.80 -6.18 2.45 -0.04 -14.09 -0.67 -7.26 -47.35 -14.85 -0.16 34.28 0.09 2.21 -21.66 -0.25 0.05 1.52 0.66 3.05 -29.47 14.25 0.00 -0.00 0.00 -34.69 -33.65 3.46 5.24 5.71 -38.93 21.15 -0.33 2.46 -0.00 -0.00 -0.00 33.02 17.86 -1.13 -22.49 5.21 74.95 -30.23 2.09 -11.46 -10.62 -4.15 -10.99 13.92 20.08 -29.35 
6.8212 84.9474 81.1597 -14.80 18.80 47.75 0.29 -9.99 4.88 0.16 30.80 -0.02 -6.10 -7.11 2.11 -0.04 -14.25 -0.67 -5.47 -44.78 -15.05 -0.16 34.58 0.10 1.77 -22.93 -0.19 0.05 2.58 0.66 2.91 -29.82 12.57 0.00 -0.00 0.00 -34.37 -31.85 1.82 5.08 5.63 -38.44 20.75 -0.34 2.37 -0.00 -0.00 -0.00 32.90 19.35 -1.81 -21.65 5.60 73.50 -29.62 1.84 -10.71 -9.50 -2.21 -10.83 14.01 19.89 -29.68 
6.8525 85.0106 83.2719 -14.98 17.14 49.86 -0.37 -10.32 7.06 0.16 32.14 -0.02 -4.99 -8.95 1.58 -0.04 -16.77 -0.68 -4.73 -42.59 -16.95 -0.16 35.40 0.11 1.50 -23.44 -0.17 0.05 1.84 0.66 3.42 -29.50 11.40 0.00 -0.00 0.00 -35.24 -30.61 0.14 5.10 5.64 -38.48 20.67 -0.34 2.37 -0.00 -0.00 -0.00 31.96 19.91 -1.54 -20.45 6.09 71.40 -28.82 1.56 -9.86 -9.28 -0.19 -10.38 14.38 19.61 -29.79 
6.8167 85.0205 85.1095 -14.73 15.57 51.58 -1.51 -10.56 8.93 0.16 33.17 -0.03 -3.80 -10.56 1.13 -0.04 -19.29 -0.68 -4.41 -40.72 -19.18 -0.16 36.68 0.12 1.38 -23.53 -0.17 0.05 0.03 0.66 3.45 -28.37 10.48 0.00 -0.00 0.00 -36.45 -30.00 -2.22 5.17 5.68 -38.71 20.78 -0.33 2.41 -0.00 -0.00 -0.00 31.41 18.89 -1.22 -19.43 6.45 69.59 -28.11 1.36 -9.25 -8.55 1.40 -10.03 14.40 19.25 -29.58 
6.6706 85.0335 86.7294 -14.18 14.09 53.68 -3.10 -10.81 9.82 0.16 33.85 -0.03 -2.48 -12.06 0.72 -0.05 -22.92 -0.68 -4.61 -39.03 -21.23 -0.17 38.26 0.14 1.32 -23.52 -0.17 0.05 -2.25 0.66 3.24 -26.73 9.21 0.00 -0.00 0.00 -37.39 -28.76 -4.18 5.35 5.77 -39.26 21.04 -0.32 2.50 -0.00 -0.00 -0.00 30.88 17.30 -1.27 -18.88 6.62 68.62 -27.50 1.25 -8.94 -7.97 2.94 -9.68 14.31 18.77 -29.27 
6.3174 84.9091 88.1852 -13.44 12.30 56.32 -4.60 -11.08 10.49 0.16 34.52 -0.03 -1.29 -13.54 0.41 -0.05 -24.80 -0.68 -4.37 -37.47 -22.16 -0.17 40.16 0.16 1.12 -23.98 -0.15 0.05 -5.03 0.67 3.18 -24.70 7.37 0.00 -0.00 0.00 -37.60 -26.36 -5.40 5.55 5.87 -39.85 21.34 -0.30 2.60 -0.00 -0.00 -0.00 30.56 16.08 -1.90 -18.86 6.63 68.58 -26.92 1.23 -8.94 -7.46 4.47 -9.24 14.06 18.41 -28.72 
5.7936 84.5835 89.5022 -12.92 10.24 58.83 -5.34 -11.85 11.66 0.17 35.11 -0.04 -0.31 -15.08 0.21 -0.05 -26.87 -0.69 -3.84 -36.42 -23.22 -0.17 42.47 0.18 1.19 -23.65 -0.16 0.05 -8.32 0.67 3.36 -22.79 5.72 0.00 -0.00 0.00 -37.18 -23.78 -6.58 5.70 5.94 -40.30 21.60 -0.29 2.68 -0.00 -0.00 -0.00 30.34 14.86 -2.20 -18.80 6.64 68.47 -26.62 1.21 -8.94 -6.75 6.09 -8.83 14.05 17.89 -28.30 
5.1521 84.3819 90.5411 -12.21 8.59 61.34 -6.07 -13.23 12.73 0.17 35.79 -0.04 0.33 -16.50 0.10 -0.05 -29.79 -0.69 -4.22 -35.99 -24.89 -0.18 45.10 0.20 1.62 -22.44 -0.20 0.05 -11.36 0.67 3.50 -20.92 4.02 0.00 -0.00 0.00 -36.90 -21.66 -7.58 5.85 6.01 -40.75 21.82 -0.28 2.77 -0.00 -0.00 -0.00 29.75 14.23 -2.39 -19.23 6.51 69.24 -26.51 1.26 -9.16 -6.28 7.68 -8.41 14.20 16.96 -27.98 
4.3165 84.3204 91.3852 -11.44 7.15 63.47 -6.51 -14.76 13.37 0.17 37.32 -0.05 0.34 -16.45 0.10 -0.05 -28.70 -0.69 -4.69 -36.05 -26.29 -0.19 47.93 0.23 2.39 -20.27 -0.33 0.05 -13.95 0.67 3.82 -17.59 2.73 0.00 -0.00 0.00 -36.81 -20.68 -8.99 6.26 6.20 -41.90 22.33 -0.24 2.98 -0.00 -0.00 -0.00 28.99 12.15 -2.24 -20.47 6.08 71.44 -26.61 1.41 -9.73 -6.32 6.93 -8.31 14.50 16.39 -27.72 
3.2367 84.5096 91.9623 -10.60 5.82 65.26 -6.55 -16.00 12.49 0.17 39.42 -0.06 0.28 -13.53 0.10 -0.05 -27.95 -0.69 -5.45 -37.28 -26.55 -0.20 51.72 0.27 3.95 -15.78 -0.78 0.05 -16.58 0.68 4.41 -14.33 2.01 0.00 -0.00 0.00 -36.53 -19.68 -10.19 6.63 6.35 -42.94 22.82 -0.20 3.19 -0.00 -0.00 -0.00 28.10 10.55 -2.64 -22.42 5.24 74.84 -26.83 1.64 -10.58 -6.81 5.86 -8.19 15.03 16.10 -27.58 
2.0568 84.3124 92.3520 -10.16 4.83 66.29 -6.48 -16.36 10.55 0.18 40.44 -0.06 0.02 -14.22 0.15 -0.05 -27.49 -0.69 -7.03 -40.45 -26.58 -0.23 57.02 0.32 5.67 -9.80 -1.69 0.05 -18.67 0.68 5.15 -11.93 1.67 0.00 -0.00 0.00 -35.74 -19.15 -10.30 6.99 6.49 -43.91 23.30 -0.16 3.39 -0.00 -0.00 -0.00 26.75 8.69 -2.14 -24.00 4.42 77.55 -27.16 1.83 -11.25 -7.45 4.80 -7.75 15.44 16.01 -26.80 
0.9501 83.6375 92.6647 -10.26 4.95 66.40 -6.89 -16.16 9.72 0.18 40.01 -0.06 -0.45 -18.58 0.20 -0.05 -25.23 -0.68 -10.02 -45.35 -26.74 -0.27 62.32 0.39 6.35 -3.51 -2.61 0.05 -19.36 0.68 4.94 -10.31 2.05 0.00 -0.00 0.00 -34.49 -19.56 -9.81 7.50 6.67 -45.23 23.93 -0.10 3.69 -0.00 -0.00 -0.00 25.64 6.24 -0.76 -25.40 3.56 79.94 -27.51 2.02 -11.86 -7.73 2.98 -7.41 15.63 16.32 -25.68 
0.0039 82.9131 93.0832 -11.05 5.57 66.43 -7.27 -16.72 9.08 0.17 39.31 -0.06 -0.69 -22.41 0.17 -0.05 -23.12 -0.68 -13.20 -50.15 -26.73 -0.29 64.29 0.41 3.76 -1.63 -1.73 0.05 -19.88 0.68 3.82 -9.88 2.95 0.00 -0.00 0.00 -33.01 -20.85 -9.59 8.01 6.82 -46.50 24.55 -0.03 4.00 -0.00 -0.00 -0.00 25.79 3.20 0.41 -26.20 3.00 81.32 -27.93 2.15 -12.25 -7.13 1.46 -7.29 15.67 16.46 -24.79 
-0.7372 82.1113 93.5265 -12.14 6.28 66.38 -7.98 -16.92 8.39 0.17 38.32 -0.05 -0.74 -27.69 0.10 -0.04 -17.92 -0.68 -15.55 -54.29 -26.12 -0.27 61.98 0.38 0.89 -3.16 -0.50 0.05 -22.03 0.68 3.23 -10.20 4.35 0.00 -0.00 0.00 -32.29 -21.95 -9.18 8.50 6.96 -47.72 25.17 0.05 4.33 -0.00 -0.00 -0.00 26.07 0.16 0.75 -26.88 2.51 82.47 -28.41 2.30 -12.66 -7.46 -0.09 -7.07 16.34 17.36 -24.41 
-1.2235 81.7027 94.0023 -13.24 6.63 66.01 -8.33 -17.13 7.11 0.17 36.87 -0.04 -0.45 -30.48 0.10 -0.04 -15.01 -0.68 -15.76 -56.90 -24.24 -0.23 56.31 0.31 0.49 -4.73 -0.33 0.05 -22.53 0.68 3.69 -10.28 5.99 0.00 -0.00 0.00 -32.75 -23.96 -8.58 8.93 7.06 -48.72 25.67 0.12 4.62 -0.00 -0.00 -0.00 25.87 -2.89 1.45 -26.94 2.46 82.59 -29.01 2.41 -12.90 -7.93 -1.68 -7.00 15.66 17.90 -23.38 
-1.4918 81.7002 94.5413 -14.23 7.50 65.48 -8.67 -17.23 6.77 0.16 34.83 -0.03 -0.27 -31.87 0.11 -0.04 -11.93 -0.67 -15.08 -58.63 -20.22 -0.19 48.78 0.24 1.36 -4.44 -0.65 0.05 -23.26 0.68 3.07 -10.46 7.65 0.00 -0.00 0.00 -32.80 -26.39 -8.05 9.22 7.12 -49.40 26.10 0.18 4.87 -0.00 -0.00 -0.00 26.89 -6.02 2.52 -26.54 2.76 81.90 -29.63 2.49 -13.02 -7.95 -3.03 -7.07 15.21 17.87 -22.69 
